<svg width="272" height="115" viewBox="0 0 272 115" fill="none" xmlns="http://www.w3.org/2000/svg">
<rect width="266.319" height="115" rx="8" fill="white"/>
<rect width="266.319" height="115" rx="8" fill="white"/>
<rect x="27.7295" y="29.5842" width="6.13678" height="61.061" fill="#00B4BD"/>
<rect width="13.4868" height="35.7734" transform="matrix(0.497691 0.867354 -0.864686 0.502312 35.4834 78.2958)" fill="white"/>
<rect x="49.5491" y="29.5842" width="6.13678" height="61.061" fill="#00B4BD"/>
<rect width="12.8607" height="52.9075" transform="matrix(0.497691 0.867354 -0.864686 0.502312 89.1597 6.44971)" fill="white"/>
<rect x="38.6394" y="29.5842" width="6.81864" height="61.061" fill="#00B4BD"/>
<rect width="20.4083" height="60.7799" transform="matrix(0.497691 0.867354 -0.864686 0.502312 58.5364 3)" fill="white"/>
<rect width="23.6238" height="51.1019" transform="matrix(0.497691 0.867354 -0.864686 0.502312 77.7463 64.1948)" fill="white"/>
<rect width="6.41324" height="13.5871" transform="matrix(0.497691 0.867354 -0.864686 0.502312 45.6147 56.8125)" fill="white"/>
<path d="M67.201 75V48.8182H71.9439V59.902H84.076V48.8182H88.8317V75H84.076V63.8778H71.9439V75H67.201ZM97.9501 75V48.8182H107.768C109.78 48.8182 111.467 49.1676 112.831 49.8665C114.203 50.5653 115.238 51.5455 115.937 52.8068C116.645 54.0597 116.998 55.5213 116.998 57.1918C116.998 58.8707 116.64 60.3281 115.925 61.5639C115.217 62.7912 114.173 63.7415 112.792 64.4148C111.412 65.0795 109.716 65.4119 107.704 65.4119H100.711V61.4744H107.065C108.241 61.4744 109.204 61.3125 109.954 60.9886C110.704 60.6562 111.258 60.1747 111.616 59.544C111.983 58.9048 112.166 58.1207 112.166 57.1918C112.166 56.2628 111.983 55.4702 111.616 54.8139C111.25 54.1491 110.692 53.6463 109.942 53.3054C109.192 52.956 108.224 52.7812 107.04 52.7812H102.693V75H97.9501ZM111.476 63.1364L117.957 75H112.665L106.298 63.1364H111.476ZM148.719 61.9091C148.719 64.7301 148.191 67.1463 147.134 69.1577C146.086 71.1605 144.654 72.6946 142.838 73.7599C141.032 74.8253 138.982 75.358 136.689 75.358C134.397 75.358 132.343 74.8253 130.527 73.7599C128.72 72.6861 127.289 71.1477 126.232 69.1449C125.184 67.1335 124.659 64.7216 124.659 61.9091C124.659 59.0881 125.184 56.6761 126.232 54.6733C127.289 52.6619 128.72 51.1236 130.527 50.0582C132.343 48.9929 134.397 48.4602 136.689 48.4602C138.982 48.4602 141.032 48.9929 142.838 50.0582C144.654 51.1236 146.086 52.6619 147.134 54.6733C148.191 56.6761 148.719 59.0881 148.719 61.9091ZM143.951 61.9091C143.951 59.9233 143.64 58.2486 143.017 56.8849C142.404 55.5128 141.551 54.4773 140.461 53.7784C139.37 53.071 138.113 52.7173 136.689 52.7173C135.266 52.7173 134.009 53.071 132.918 53.7784C131.827 54.4773 130.97 55.5128 130.348 56.8849C129.735 58.2486 129.428 59.9233 129.428 61.9091C129.428 63.8949 129.735 65.5739 130.348 66.946C130.97 68.3097 131.827 69.3452 132.918 70.0526C134.009 70.7514 135.266 71.1009 136.689 71.1009C138.113 71.1009 139.37 70.7514 140.461 70.0526C141.551 69.3452 142.404 68.3097 143.017 66.946C143.64 65.5739 143.951 63.8949 143.951 61.9091ZM180.558 61.9091C180.558 64.7301 180.03 67.1463 178.973 69.1577C177.924 71.1605 176.493 72.6946 174.677 73.7599C172.87 74.8253 170.821 75.358 168.528 75.358C166.236 75.358 164.182 74.8253 162.366 73.7599C160.559 72.6861 159.128 71.1477 158.071 69.1449C157.022 67.1335 156.498 64.7216 156.498 61.9091C156.498 59.0881 157.022 56.6761 158.071 54.6733C159.128 52.6619 160.559 51.1236 162.366 50.0582C164.182 48.9929 166.236 48.4602 168.528 48.4602C170.821 48.4602 172.87 48.9929 174.677 50.0582C176.493 51.1236 177.924 52.6619 178.973 54.6733C180.03 56.6761 180.558 59.0881 180.558 61.9091ZM175.789 61.9091C175.789 59.9233 175.478 58.2486 174.856 56.8849C174.243 55.5128 173.39 54.4773 172.299 53.7784C171.209 53.071 169.951 52.7173 168.528 52.7173C167.105 52.7173 165.848 53.071 164.757 53.7784C163.666 54.4773 162.809 55.5128 162.187 56.8849C161.574 58.2486 161.267 59.9233 161.267 61.9091C161.267 63.8949 161.574 65.5739 162.187 66.946C162.809 68.3097 163.666 69.3452 164.757 70.0526C165.848 70.7514 167.105 71.1009 168.528 71.1009C169.951 71.1009 171.209 70.7514 172.299 70.0526C173.39 69.3452 174.243 68.3097 174.856 66.946C175.478 65.5739 175.789 63.8949 175.789 61.9091ZM203.231 56.0156C203.111 54.8991 202.609 54.0298 201.722 53.4077C200.844 52.7855 199.702 52.4744 198.296 52.4744C197.307 52.4744 196.459 52.6236 195.752 52.9219C195.045 53.2202 194.503 53.625 194.128 54.1364C193.753 54.6477 193.562 55.2315 193.553 55.8878C193.553 56.4332 193.677 56.9062 193.924 57.3068C194.18 57.7074 194.525 58.0483 194.959 58.3295C195.394 58.6023 195.876 58.8324 196.404 59.0199C196.932 59.2074 197.465 59.3651 198.002 59.4929L200.457 60.1065C201.445 60.3366 202.395 60.6477 203.307 61.0398C204.228 61.4318 205.05 61.9261 205.775 62.5227C206.508 63.1193 207.087 63.8395 207.513 64.6832C207.939 65.527 208.153 66.5156 208.153 67.6491C208.153 69.1832 207.76 70.5341 206.976 71.7017C206.192 72.8608 205.059 73.7685 203.576 74.4247C202.101 75.0724 200.316 75.3963 198.219 75.3963C196.182 75.3963 194.414 75.081 192.914 74.4503C191.422 73.8196 190.255 72.8991 189.411 71.6889C188.576 70.4787 188.124 69.0043 188.056 67.2656H192.722C192.79 68.1776 193.072 68.9361 193.566 69.5412C194.06 70.1463 194.704 70.598 195.496 70.8963C196.297 71.1946 197.192 71.3438 198.181 71.3438C199.212 71.3438 200.116 71.1903 200.891 70.8835C201.675 70.5682 202.289 70.1335 202.732 69.5795C203.175 69.017 203.401 68.3608 203.41 67.6108C203.401 66.929 203.201 66.3665 202.809 65.9233C202.417 65.4716 201.867 65.0966 201.16 64.7983C200.461 64.4915 199.643 64.2187 198.705 63.9801L195.726 63.2131C193.57 62.6591 191.866 61.8196 190.613 60.6946C189.368 59.5611 188.746 58.0568 188.746 56.1818C188.746 54.6392 189.164 53.2884 189.999 52.1293C190.843 50.9702 191.989 50.071 193.438 49.4318C194.887 48.7841 196.528 48.4602 198.36 48.4602C200.218 48.4602 201.846 48.7841 203.243 49.4318C204.65 50.071 205.753 50.9616 206.555 52.1037C207.356 53.2372 207.769 54.5412 207.795 56.0156H203.231ZM215.19 52.794V48.8182H236.08V52.794H227.987V75H223.283V52.794H215.19Z" fill="#404040"/>
</svg>
