<svg width="771" height="611" viewBox="0 0 771 611" fill="none" xmlns="http://www.w3.org/2000/svg">
<path d="M139.423 163.613C137.034 167.274 132.033 168.823 127.732 169.613C122.237 170.646 116.554 170.919 110.99 171.373L107.756 172.101C107.144 172.273 106.575 172.556 106.083 172.931C105.589 173.306 105.182 173.767 104.884 174.286C104.586 174.806 104.403 175.374 104.345 175.96C104.287 176.544 104.356 177.134 104.547 177.694C106.548 184.007 109.301 190.098 112.756 195.859L107.636 200.552C106.186 198.753 106.118 195.6 104.172 195.905C102.303 194.192 100.084 193.355 97.789 195.647C93.3005 200.145 94.0258 209.494 100.622 212.075L99.1458 218.811C98.6363 221.165 97.2531 223.286 95.2307 224.811C93.2074 226.336 90.6713 227.17 88.0525 227.173L89.1874 219.202C81.5074 222.761 72.7949 215.064 73.4007 208.719C73.7933 204.37 72.7181 201.366 69.2109 198.213C68.9805 198.002 70.3885 197.22 70.1751 197.009C69.1853 194.263 69.0487 191.055 70.0301 189.24C71.7367 186.002 76.7629 184.109 74.4503 180.573C73.4357 179.032 72.695 177.352 72.2573 175.597C71.7931 173.271 71.8775 170.88 72.5064 168.586C73.1353 166.292 74.2925 164.148 75.901 162.299C79.3143 158.544 84.861 159.553 89.3922 158.223C94.9133 156.658 97.4647 151.237 103.242 149.563C106.118 148.726 108.78 149.109 111.656 149.712C114.088 150.228 116.494 150.807 118.883 151.495C121.273 152.184 123.372 152.755 125.71 152.113C128.799 151.331 131.18 148.687 134.551 148.663C136.232 148.628 137.879 149.11 139.227 150.032C141.719 154.139 141.736 160.1 139.423 163.613Z" fill="#00B4BD"/>
<path d="M33.8147 269.535C33.8147 269.535 -59.0875 175.598 77.7272 128.724C85.6606 126.057 93.9294 124.317 102.337 123.545C124.174 121.417 172.447 113.852 178.011 88.303" stroke="#CCDDE2" stroke-width="4.11" stroke-miterlimit="10"/>
<path d="M423.805 138.033V138.009" stroke="#CCDDE2" stroke-width="4.11" stroke-miterlimit="10"/>
<path d="M180.042 307.171V307.147" stroke="black" stroke-width="4.11" stroke-miterlimit="10"/>
<path d="M107.406 199.927C106.496 198.486 105.414 197.142 104.18 195.922C102.311 194.209 100.093 193.372 97.7971 195.664C93.3085 200.162 94.0339 209.51 100.63 212.092L99.1539 218.827C98.6444 221.182 97.2612 223.302 95.2388 224.827C93.2155 226.351 90.6794 227.187 88.0605 227.19" stroke="black" stroke-width="4.11" stroke-linecap="round" stroke-linejoin="round"/>
<path d="M83.9307 256.994C84.3061 254.381 85.2363 247.521 86.1323 240.981C86.9856 234.918 87.7451 229.082 88.0437 227.158L89.1872 219.202" stroke="black" stroke-width="4.11" stroke-linecap="round" stroke-linejoin="round"/>
<path d="M136.616 178.602C136.616 178.602 125.719 179.095 123.611 187.364" stroke="black" stroke-width="4.11" stroke-miterlimit="10"/>
<path d="M140.575 200.451C143.544 200.381 147.401 199.982 148.801 197.22L141.291 189.624C139.459 187.763 138.376 185.384 138.219 182.881C137.921 178.68 138.458 172.015 134.072 167.58" stroke="black" stroke-width="4.11" stroke-miterlimit="10"/>
<path d="M134.154 189.937C135.383 188.69 135.444 186.904 134.29 185.948C133.137 184.992 131.205 185.228 129.976 186.475C128.746 187.721 128.685 189.507 129.838 190.463C130.992 191.419 132.924 191.184 134.154 189.937Z" fill="black"/>
<path d="M133.416 250.346L127.758 225.203" stroke="black" stroke-width="4.11" stroke-miterlimit="10"/>
<path d="M276.836 363.502L240.373 390.835C284.242 452.166 251.039 463.423 251.039 463.423C244.598 464.554 238.095 465.356 231.558 465.825C199.848 467.922 167.319 460.419 141.181 443.616C88.2747 409.587 42.1946 341.481 66.7707 282.184C68.8383 277.168 71.365 272.321 74.3227 267.696C76.8716 263.675 80.1168 260.061 83.9312 256.994C90.6077 251.636 98.8295 248.159 107.609 246.981C116.389 245.803 125.353 246.974 133.424 250.352C136.514 251.646 139.437 253.252 142.137 255.14C155.952 264.833 168.513 278.609 179.342 293.065C188.957 306.139 197.61 319.786 205.241 333.916C207.349 337.773 209.26 341.418 210.95 344.759C226.267 339.079 239.11 329.434 251.056 319.014C236.609 343.734 276.836 363.502 276.836 363.502Z" fill="#353642"/>
<path d="M251.321 383.497C250.621 383.99 249.895 384.506 249.17 384.999" stroke="black" stroke-width="4.11" stroke-miterlimit="10"/>
<path d="M143.52 279.587C153.19 296.563 162.862 313.57 172.533 330.608C179.829 343.469 192.159 351.409 209.525 345.315C228.418 338.681 243.658 326 257.755 313.077C271.852 300.154 286.137 287.793 306.489 284.461C332.797 280.151 357.689 293.293 375.609 309.901C376.988 311.167 377.86 312.823 378.084 314.601C378.309 316.378 377.873 318.174 376.846 319.695C376.187 320.668 375.308 321.501 374.267 322.134C373.226 322.768 372.049 323.189 370.815 323.367C369.58 323.546 368.319 323.479 367.116 323.171C365.912 322.863 364.795 322.32 363.841 321.58C355.351 314.939 341.535 305.332 331.927 305.207" stroke="black" stroke-width="4.11" stroke-miterlimit="10"/>
<path d="M305.712 327.994C308.664 329.801 312.76 331.804 316.174 331.804" stroke="black" stroke-width="4.11" stroke-miterlimit="10"/>
<path d="M343.549 308.501C349.847 311.357 352.142 319.712 347.696 324.702C342.059 331.115 334.996 336.352 326.977 340.067C318.205 344.08 312.573 341.631 303.938 336.734" stroke="black" stroke-width="4.11" stroke-miterlimit="10"/>
<path d="M328.974 315.988C328.974 315.988 341.45 318.82 341.117 329.92C341.095 330.394 341.002 330.862 340.844 331.313" stroke="black" stroke-width="4.11" stroke-miterlimit="10"/>
<path d="M320.159 322.98C320.159 322.98 336.893 332.891 328.931 339.126" stroke="black" stroke-width="4.11" stroke-miterlimit="10"/>
<path d="M643.41 361.828C623.698 411.495 568.513 412.896 562.198 412.896C564.843 407.787 565.56 398.815 559.766 383.091C563.648 377.895 565.691 371.729 565.619 365.431C565.547 359.134 563.365 353.009 559.365 347.888C559.442 347.825 559.484 347.739 559.553 347.677C562.312 347.522 565.051 347.143 567.736 346.542C577.259 344.461 596.033 339.893 610.932 333.462C621.035 329.09 632.82 336.099 631.958 346.323C631.958 346.456 631.958 346.581 631.907 346.73C633.88 346.729 635.824 347.164 637.573 348C639.322 348.835 640.826 350.045 641.956 351.529C643.085 353.011 643.807 354.721 644.06 356.515C644.313 358.308 644.091 360.131 643.41 361.828Z" fill="#00B4BD"/>
<path d="M390.456 478.32C383.817 488.763 373.484 497.658 363.5 505.418C328.351 532.689 282.433 546.535 236.353 547.075C190.12 546.535 144.031 532.642 108.72 505.614C-2.85313 420.204 17.3111 319.359 35.3591 272.665C35.9948 271.05 36.8553 269.518 37.9191 268.104C39.3303 266.212 41.1623 264.614 43.2948 263.417C45.4274 262.22 47.8119 261.45 50.2925 261.157C59.7645 262.354 68.3661 269.559 66.8472 280.715C66.8472 281.145 66.6594 281.739 66.6168 282.17C42.0578 341.467 88.1549 409.573 141.027 443.602C165.015 459.036 194.386 466.625 223.57 466.132H223.903C226.406 466.085 228.906 465.979 231.404 465.811C247.796 464.716 263.728 461.117 279.506 456.76C298.023 451.683 316.336 445.526 334.836 441.216C341.339 439.698 347.858 438.236 354.412 436.867C358.194 436.155 362.062 435.911 365.915 436.139C388.639 437.547 404.605 456.072 390.456 478.32Z" fill="#D7E8F0"/>
<path d="M396.072 478.32C389.433 488.763 379.09 497.658 369.106 505.418C332.558 533.799 284.336 547.662 236.328 547.075C190.094 546.535 144.006 532.642 108.695 505.614C-2.85252 420.204 17.3117 319.359 35.3597 272.665C35.9954 271.05 36.8558 269.518 37.9197 268.104C39.3308 266.212 41.1629 264.614 43.2954 263.417C45.428 262.22 47.8131 261.45 50.2929 261.157C59.7649 262.354 68.3665 269.559 66.8476 280.715C66.8476 281.145 66.6598 281.739 66.6172 282.17C42.0584 341.467 88.1553 409.573 141.028 443.602C165.015 459.036 194.387 466.625 223.571 466.132H223.903C228.301 466.194 232.673 466.088 237.019 465.811C253.412 464.716 269.335 461.117 285.121 456.76C303.639 451.683 321.951 445.526 340.452 441.216C346.945 439.698 353.473 438.236 360.018 436.867C361.964 436.502 363.934 436.259 365.915 436.139C391.464 434.567 411.363 454.272 396.072 478.32Z" fill="#D7E8F0"/>
<path d="M244.033 546.932L255.263 561.498C255.263 561.498 323.214 563.923 360.402 592.539C367.28 597.835 363.167 608.122 354.19 608.122C351.939 608.129 349.758 607.403 348.037 606.072C339.257 599.313 305.712 578.067 229.834 577.425C155.901 576.791 127.545 597.764 119.703 605.407C118.808 606.271 117.731 606.957 116.536 607.424C115.341 607.89 114.055 608.128 112.756 608.122H111.297C102.081 608.122 98.1816 597.452 105.461 592.273C136.505 570.142 206.094 563.086 206.094 563.086L217.972 546.658" fill="#353642"/>
<path d="M544.756 466.162C544.756 466.162 565.569 484.288 559.075 540.479C558.601 544.492 557.08 548.34 554.637 551.697L552.376 554.826C548.668 559.918 543.076 563.608 536.632 565.215C523.039 568.618 498.377 576.504 483.145 591.445C476.711 597.774 481.498 608.084 490.936 608.084C492.696 608.089 494.43 607.694 495.983 606.935C497.535 606.176 498.859 605.077 499.836 603.735C506.04 595.177 524.822 577.004 570.125 577.388C621.223 577.818 641.805 596.444 648.402 604.47C649.313 605.59 650.496 606.499 651.858 607.126C653.219 607.754 654.721 608.081 656.244 608.084C658.154 608.081 660.021 607.567 661.616 606.604C663.211 605.643 664.466 604.275 665.227 602.669C665.986 601.063 666.218 599.288 665.895 597.563C665.571 595.837 664.705 594.236 663.403 592.955C643.478 573.108 619.107 565.708 605.658 562.962C598.902 561.627 592.932 558.025 588.924 552.863C585.856 548.881 584.11 544.169 583.898 539.298C583.147 521.877 582.755 479.586 595.632 466.178" fill="#353642"/>
<path d="M279.677 456.782C316.276 440.495 355.999 429.809 395.056 419.748C434.36 409.626 474.049 400.794 513.857 392.494C529.763 389.185 545.814 386.235 561.643 382.504" stroke="black" stroke-width="4.11" stroke-miterlimit="10"/>
<path d="M314.015 331.579H314.041H314.058" stroke="black" stroke-width="4.11" stroke-miterlimit="10"/>
<path d="M309.91 329.459C307.615 331.54 299.423 342.656 297.366 344.651C286.068 355.751 274.067 366.231 261.424 376.036C258.241 378.461 254.87 380.964 251.32 383.499C250.621 383.992 249.895 384.508 249.17 385.001C225.106 401.742 193.703 417.857 164.69 407.531C163.922 407.273 163.171 406.975 162.429 406.67C117.928 388.404 86.8236 342.656 84.11 298.496C84.0161 297.056 83.9649 295.625 83.9478 294.209C83.7089 282.138 85.6545 270.068 98.2838 263.7" stroke="black" stroke-width="4.11" stroke-miterlimit="10"/>
<path d="M66.839 282.012L67.0182 280.729C69.8512 259.905 37.5954 252.88 29.941 272.664C11.9015 319.351 -8.27125 420.172 103.327 505.597C175.357 560.756 291.974 561.14 363.73 505.417C373.714 497.665 384.048 488.755 390.696 478.311C407.515 451.901 381.83 430.725 352.859 437.226" stroke="black" stroke-width="4.11" stroke-miterlimit="10"/>
<path d="M244.033 546.932L255.263 561.498C255.263 561.498 323.214 563.923 360.402 592.539C367.28 597.835 363.167 608.122 354.19 608.122C351.939 608.129 349.758 607.403 348.037 606.072C339.257 599.313 305.712 578.067 229.834 577.425C155.901 576.791 127.545 597.764 119.703 605.407C118.808 606.271 117.731 606.957 116.536 607.424C115.341 607.89 114.055 608.128 112.756 608.122H111.297C102.081 608.122 98.1816 597.452 105.461 592.273C136.505 570.142 206.094 563.086 206.094 563.086L217.972 546.658" stroke="black" stroke-width="4.11" stroke-miterlimit="10"/>
<path d="M206.094 332.667C234.578 325.626 246.312 288.789 251.039 264.021" stroke="black" stroke-width="4.11" stroke-miterlimit="10"/>
<path d="M179.316 293.089C187.229 292.139 194.745 289.345 201.143 284.973C207.542 280.601 212.611 274.798 215.865 268.118C216.546 266.789 216.877 265.333 216.832 263.866C216.788 262.398 216.369 260.961 215.609 259.67C212.503 254.397 207.869 248.287 208.97 241.966C209.763 237.507 213.765 234.37 218.356 233.361C220.683 232.802 223.134 232.84 225.439 233.471C226.821 233.83 228.098 234.466 229.178 235.333C230.259 236.2 231.115 237.277 231.685 238.485C232.803 240.887 231.472 243.265 229.416 244.83C227.359 246.394 224.953 246.95 222.444 247.575C222.12 247.661 221.232 247.834 220.251 248.006" stroke="black" stroke-width="4.11" stroke-miterlimit="10"/>
<path d="M561.609 382.489C561.609 382.489 617.759 371.709 628.306 356.181C630.283 353.35 631.515 350.136 631.907 346.793" stroke="black" stroke-width="4.11" stroke-miterlimit="10"/>
<path d="M285.317 355.97C383.254 346.434 493.795 347.842 493.795 347.842H555.832C559.841 347.847 563.837 347.416 567.736 346.559C577.259 344.478 596.032 339.917 610.932 333.479C621.035 329.106 632.82 336.115 631.958 346.348C631.958 346.473 631.958 346.606 631.907 346.754C633.875 346.755 635.814 347.191 637.56 348.024C639.306 348.858 640.807 350.065 641.936 351.543C643.064 353.022 643.787 354.728 644.044 356.517C644.3 358.306 644.083 360.126 643.409 361.821C622.486 414.539 561.609 412.889 561.609 412.889C553.827 413.1 546.061 413.382 538.27 413.749C469.637 416.808 401.609 425.64 335.015 441.231C316.515 445.541 298.202 451.69 279.685 456.775C263.898 461.148 247.95 464.723 231.557 465.818C199.847 467.922 167.318 460.412 141.181 443.609C83.9305 406.779 34.6591 329.99 74.322 267.657C88.3252 245.66 120.035 239.636 142.136 255.141C173.309 277.006 198.209 319.601 210.983 344.728" stroke="black" stroke-width="4.11" stroke-miterlimit="10"/>
<path d="M642.113 466.162H505.818" stroke="black" stroke-width="4.11" stroke-miterlimit="10"/>
<path d="M478.307 440.925C478.327 434.236 481.234 427.828 486.391 423.097C491.55 418.368 498.54 415.701 505.835 415.681H642.146C649.443 415.699 656.436 418.365 661.596 423.095C666.756 427.825 669.663 434.236 669.684 440.925" stroke="black" stroke-width="4.11" stroke-miterlimit="10"/>
<path d="M672.363 449.875C672.37 452.016 671.915 454.138 671.023 456.117C670.132 458.097 668.823 459.895 667.171 461.408C665.519 462.922 663.557 464.121 661.398 464.937C659.238 465.753 656.924 466.169 654.588 466.162H493.308C489.271 465.812 485.545 464.024 482.932 461.181C480.318 458.339 479.025 454.67 479.331 450.963C479.638 447.256 481.518 443.807 484.569 441.358C487.621 438.909 491.598 437.656 495.646 437.867H656.926C659.789 437.863 662.611 438.494 665.149 439.709C667.687 440.923 669.867 442.682 671.501 444.837C672.072 446.465 672.363 448.165 672.363 449.875Z" fill="#D7E8F0"/>
<path d="M672.363 449.874C672.37 452.016 671.914 454.137 671.024 456.116C670.133 458.095 668.824 459.894 667.172 461.408C665.52 462.921 663.557 464.121 661.398 464.936C659.238 465.752 656.924 466.169 654.588 466.162H493.309C490.942 466.209 488.589 465.823 486.387 465.026C484.186 464.228 482.18 463.036 480.489 461.518C478.797 460 477.452 458.189 476.535 456.188C475.616 454.189 475.144 452.041 475.144 449.87C475.144 447.7 475.616 445.552 476.535 443.552C477.452 441.552 478.797 439.74 480.489 438.222C482.18 436.705 484.186 435.512 486.387 434.715C488.589 433.918 490.942 433.532 493.309 433.579H654.588C658.343 433.578 662.002 434.666 665.04 436.688C668.079 438.71 670.34 441.563 671.501 444.836C672.072 446.464 672.362 448.164 672.363 449.874Z" stroke="black" stroke-width="4.11" stroke-miterlimit="10"/>
<path d="M250.732 263.442L250.408 265.953C250.259 267.092 249.661 268.142 248.726 268.905C247.79 269.668 246.582 270.089 245.33 270.091H227.607C226.355 270.089 225.147 269.668 224.211 268.905C223.276 268.142 222.678 267.092 222.529 265.953L220.242 247.96C221.224 247.788 222.111 247.616 222.436 247.53C224.944 246.904 227.376 246.372 229.407 244.784C231.438 243.196 232.821 240.873 231.677 238.44C231.106 237.232 230.25 236.155 229.17 235.288C228.09 234.42 226.812 233.784 225.431 233.425C223.125 232.795 220.675 232.756 218.348 233.316L217.81 229.029C217.731 228.374 217.804 227.711 218.023 227.083C218.241 226.455 218.602 225.877 219.081 225.386C219.56 224.894 220.147 224.5 220.802 224.23C221.458 223.96 222.169 223.82 222.888 223.819H250.084C250.802 223.821 251.511 223.963 252.166 224.233C252.821 224.503 253.406 224.897 253.884 225.388C254.362 225.879 254.722 226.457 254.941 227.085C255.159 227.712 255.232 228.374 255.152 229.029L254.521 233.918" stroke="black" stroke-width="4.11" stroke-miterlimit="10"/>
<path d="M253.096 245.096L253.07 245.268" stroke="black" stroke-width="4.11" stroke-miterlimit="10"/>
<path d="M251.765 255.432V255.361" stroke="black" stroke-width="4.11" stroke-miterlimit="10"/>
<path d="M252.021 255.429C251.945 255.417 251.866 255.417 251.79 255.429C251.683 255.418 251.574 255.418 251.466 255.429C250.36 255.433 249.296 255.817 248.485 256.505C247.673 257.194 247.173 258.137 247.083 259.148C246.995 260.158 247.323 261.162 248.003 261.962C248.683 262.761 249.666 263.297 250.758 263.463C251.228 263.549 251.713 263.549 252.183 263.463C254.313 263.151 256.258 262.166 257.678 260.678C259.572 257.823 260.888 254.677 261.561 251.392C261.573 251.359 261.573 251.323 261.561 251.29C262.082 248.87 262.28 246.401 262.15 243.937M262.15 243.937C262.15 242.881 262.005 241.833 261.868 240.808C261.608 239.093 260.753 237.501 259.43 236.266C258.107 235.031 256.386 234.218 254.521 233.947C254.427 233.947 254.316 233.947 254.222 233.9C250.638 233.493 245.612 234.737 244.682 238.445C243.829 241.794 247.788 244.665 251.039 244.923C251.039 244.923 251.893 245.024 253.096 245.095C255.502 245.243 259.504 245.22 262.15 243.937ZM262.15 243.937C262.539 243.752 262.905 243.529 263.242 243.272" stroke="black" stroke-width="4.11" stroke-miterlimit="10"/>
<path d="M255.757 245.277H255.169H250.62H248.615C247.259 245.281 245.957 245.761 244.975 246.618C243.992 247.475 243.405 248.643 243.333 249.885C243.266 251.091 243.691 252.276 244.523 253.213C245.355 254.149 246.536 254.769 247.839 254.954C253.727 255.822 260.451 256.002 261.603 251.168" stroke="black" stroke-width="4.11" stroke-miterlimit="10"/>
<path d="M544.756 466.162C544.756 466.162 565.569 484.288 559.075 540.479C558.601 544.492 557.08 548.34 554.637 551.697L552.376 554.826C548.668 559.918 543.076 563.608 536.632 565.215C523.039 568.618 498.377 576.504 483.145 591.445C476.711 597.774 481.498 608.084 490.936 608.084C492.696 608.089 494.43 607.694 495.983 606.935C497.535 606.176 498.859 605.077 499.836 603.735C506.04 595.177 524.822 577.004 570.125 577.388C621.223 577.818 641.805 596.444 648.402 604.47C649.313 605.59 650.496 606.499 651.858 607.126C653.219 607.754 654.721 608.081 656.244 608.084C658.154 608.081 660.021 607.567 661.616 606.604C663.211 605.643 664.466 604.275 665.227 602.669C665.986 601.063 666.218 599.288 665.895 597.563C665.571 595.837 664.705 594.236 663.403 592.955C643.478 573.108 619.107 565.708 605.658 562.962C598.902 561.627 592.932 558.025 588.924 552.863C585.856 548.881 584.11 544.169 583.898 539.298C583.147 521.877 582.755 479.586 595.632 466.178" stroke="black" stroke-width="4.11" stroke-miterlimit="10"/>
<path d="M501.492 334.823V336.09C501.492 344.766 493.863 346.26 487.275 346.409L359.779 349.131C354.19 349.256 349.488 344.781 349.368 339.18V338.945C349.368 333.469 353.771 328.893 359.284 328.776C359.284 328.776 430.614 326.93 485.842 325.537C486.9 328.604 489.46 330.966 492.668 332.82C495.326 334.278 498.398 334.975 501.492 334.823Z" stroke="black" stroke-width="4.11" stroke-miterlimit="10"/>
<path d="M569.263 211.144C569.27 212.571 568.913 213.979 568.222 215.258L511.203 322.416C510.534 323.66 509.576 324.755 508.397 325.624C507.218 326.492 505.845 327.114 504.376 327.446C502.022 327.999 499.529 327.766 497.344 326.789C495.593 325.999 494.12 324.772 493.092 323.251C492.065 321.729 491.525 319.974 491.533 318.184C491.538 317.744 491.572 317.305 491.636 316.869C491.788 315.899 492.104 314.958 492.574 314.077L549.586 206.904C550.616 204.981 552.326 203.433 554.437 202.515C556.548 201.597 558.936 201.361 561.213 201.847C563.49 202.332 565.519 203.51 566.972 205.188C568.425 206.867 569.214 208.946 569.212 211.089L569.263 211.144Z" stroke="black" stroke-width="4.11" stroke-miterlimit="10"/>
<path d="M107.645 200.568C107.577 200.349 107.483 200.138 107.406 199.926C107.33 199.715 107.219 199.473 107.15 199.238" stroke="black" stroke-width="4.11" stroke-linecap="round" stroke-linejoin="round"/>
<path d="M107.645 200.576L109.394 198.964L112.739 195.859" stroke="black" stroke-width="4.11" stroke-linecap="round" stroke-linejoin="round"/>
<path d="M127.331 204.818C127.331 204.818 129.575 210.959 138.151 211.374" stroke="black" stroke-width="4.11" stroke-miterlimit="10"/>
<path d="M89.1869 219.202C81.5069 222.761 72.7944 215.064 73.4003 208.719C73.7928 204.37 72.7176 201.367 69.2104 198.213C68.98 198.002 68.7667 197.783 68.5619 197.572C67.2264 196.24 66.3586 194.572 66.0693 192.782C65.78 190.993 66.0838 189.164 66.9406 187.535C68.5363 184.132 71.9752 182.137 69.5859 178.468C68.5371 176.882 67.7717 175.152 67.316 173.344C66.839 170.947 66.9286 168.485 67.578 166.121C68.2274 163.759 69.4212 161.551 71.0792 159.646C74.595 155.735 80.3208 156.815 85.0227 155.446C90.6803 153.795 93.3256 148.217 99.2648 146.504C102.234 145.651 104.991 146.035 107.96 146.653C110.461 147.193 112.969 147.795 115.401 148.499C117.833 149.203 120.052 149.805 122.484 149.14C125.667 148.288 128.116 145.604 131.58 145.581C135.045 145.558 137.707 147.427 139.26 150.04C141.718 154.139 141.735 160.1 139.423 163.636C137.033 167.297 132.033 168.846 127.732 169.636C122.236 170.669 116.553 170.943 110.99 171.396L107.755 172.124C106.525 172.474 105.497 173.257 104.895 174.301C104.293 175.345 104.168 176.566 104.547 177.694C106.548 184.007 109.301 190.099 112.756 195.858" stroke="black" stroke-width="4.11" stroke-miterlimit="10"/>
<path d="M112.74 220.101C112.74 220.101 129.67 231.467 139.321 225.201C148.972 218.935 143.519 200.567 143.519 200.567" stroke="black" stroke-width="4.11" stroke-linecap="round" stroke-linejoin="round"/>
<path d="M232.368 215.972C232.368 215.972 225.174 211.513 229.748 206.96C234.322 202.407 228.229 196.399 228.229 196.399" stroke="black" stroke-width="4.11" stroke-miterlimit="10"/>
<path d="M239.007 216.745C239.007 216.745 243.769 213.796 240.714 210.777C237.659 207.757 241.729 203.736 241.729 203.736" stroke="black" stroke-width="4.11" stroke-miterlimit="10"/>
<path d="M271.818 174.254C323.621 174.254 365.616 135.756 365.616 88.2654C365.616 40.7752 323.621 2.27661 271.818 2.27661C220.015 2.27661 178.02 40.7752 178.02 88.2654C178.02 135.756 220.015 174.254 271.818 174.254Z" stroke="#CCDDE2" stroke-width="4.11" stroke-miterlimit="10"/>
<path d="M271.818 135.49C300.269 135.49 323.333 114.345 323.333 88.263C323.333 62.1801 300.269 41.0365 271.818 41.0365C243.366 41.0365 220.302 62.1801 220.302 88.263C220.302 114.345 243.366 135.49 271.818 135.49Z" stroke="#CCDDE2" stroke-width="4.11" stroke-miterlimit="10"/>
<path d="M271.817 96.3588C276.695 96.3588 280.649 92.7337 280.649 88.2622C280.649 83.7906 276.695 80.1655 271.817 80.1655C266.94 80.1655 262.985 83.7906 262.985 88.2622C262.985 92.7337 266.94 96.3588 271.817 96.3588Z" stroke="#CCDDE2" stroke-width="4.11" stroke-miterlimit="10"/>
<path d="M290.104 61.2288L276.468 81.3804" stroke="#CCDDE2" stroke-width="4.11" stroke-miterlimit="10"/>
<path d="M271.817 41.0365V49.4382" stroke="#CCDDE2" stroke-width="4.11" stroke-miterlimit="10"/>
<path d="M323.333 88.2638H314.646" stroke="#CCDDE2" stroke-width="4.11" stroke-miterlimit="10"/>
<path d="M271.817 135.499V127.332" stroke="#CCDDE2" stroke-width="4.11" stroke-miterlimit="10"/>
<path d="M220.293 88.2638H228.127" stroke="#CCDDE2" stroke-width="4.11" stroke-miterlimit="10"/>
<path d="M361.716 231.235C380.991 231.235 396.617 216.91 396.617 199.24C396.617 181.569 380.991 167.244 361.716 167.244C342.441 167.244 326.814 181.569 326.814 199.24C326.814 216.91 342.441 231.235 361.716 231.235Z" fill="#00B4BD"/>
<path d="M373.193 188.553C372.701 187.512 372.039 186.547 371.23 185.69C369.847 184.19 367.915 183.203 365.796 182.916C363.678 182.628 361.517 183.058 359.719 184.125C358.546 184.826 357.566 185.766 356.855 186.872C356.145 187.979 355.723 189.22 355.623 190.501C353.786 189.883 351.78 189.83 349.906 190.35C348.034 190.868 346.396 191.932 345.24 193.379C344.084 194.827 343.473 196.579 343.499 198.373C343.524 200.166 344.186 201.903 345.383 203.322C347.883 206.311 352.133 208.274 355.981 209.416C357.999 210.008 360.078 210.412 362.185 210.621C363.252 210.731 369.336 211.481 369.865 210.621C373.662 205.176 376.359 195.202 373.193 188.553Z" fill="white"/>
<g opacity="0.72">
<path opacity="0.72" d="M448.705 185.995C459.319 185.995 467.922 178.108 467.922 168.378C467.922 158.648 459.319 150.761 448.705 150.761C438.092 150.761 429.488 158.648 429.488 168.378C429.488 178.108 438.092 185.995 448.705 185.995Z" fill="#00B4BD"/>
<path opacity="0.72" d="M457.042 171.498C457.519 171.054 457.915 170.545 458.22 169.988C458.768 169.029 458.915 167.919 458.634 166.868C458.353 165.816 457.663 164.895 456.693 164.278C456.059 163.876 455.332 163.615 454.569 163.514C453.807 163.414 453.029 163.477 452.298 163.699C452.257 162.712 451.866 161.763 451.186 160.998C450.505 160.232 449.571 159.69 448.525 159.453C447.479 159.216 446.377 159.298 445.386 159.686C444.395 160.073 443.568 160.746 443.031 161.602C441.985 163.539 441.579 165.715 441.862 167.861C441.958 168.92 442.169 169.968 442.493 170.99C442.655 171.514 443.509 174.51 444.089 174.604C447.903 175.191 454.013 174.369 457.042 171.498Z" fill="white"/>
</g>
<path d="M421.167 251.57L412.032 269.278C408.719 275.699 411.712 283.366 418.716 286.403L438.032 294.777C445.036 297.814 453.4 295.069 456.713 288.648L465.847 270.941C469.159 264.52 466.167 256.853 459.162 253.816L439.846 245.442C432.842 242.405 424.479 245.149 421.167 251.57Z" fill="#00B4BD"/>
<path d="M460.634 274.041L454.021 286.863C452.634 289.533 450.15 291.592 447.113 292.59C444.075 293.588 440.73 293.444 437.808 292.19L421.031 284.915C418.12 283.641 415.875 281.364 414.789 278.579C413.702 275.795 413.86 272.729 415.229 270.051L415.672 269.191C420.229 265.858 428.105 261.368 430.981 267.478C435.12 276.302 440.504 273.454 447.382 269.762C453.125 266.648 460.02 265.608 460.634 274.041Z" fill="white"/>
<path d="M434.651 260.414C437.502 260.414 439.814 258.295 439.814 255.681C439.814 253.067 437.502 250.949 434.651 250.949C431.8 250.949 429.488 253.067 429.488 255.681C429.488 258.295 431.8 260.414 434.651 260.414Z" fill="white"/>
<path d="M522.731 193.489C523.758 195.205 524.503 197.05 524.942 198.965C525.723 202.468 525.499 206.098 524.291 209.497C523.081 212.897 520.93 215.95 518.047 218.358C515.76 220.212 512.85 221.659 510.537 223.599C508.85 224.934 507.608 226.677 506.953 228.629C506.834 229.296 506.541 229.927 506.1 230.468C504.752 231.797 503.429 229.685 502.26 229.325C500.376 228.764 498.332 228.855 496.517 229.584C491.744 231.413 486.429 231.673 481.471 230.32C476.513 228.966 472.219 226.082 469.315 222.157C466.412 218.233 465.079 213.508 465.542 208.785C466.005 204.062 468.236 199.631 471.856 196.243C475.431 192.902 480.108 190.767 484.656 188.592C488.632 186.66 492.592 184.602 496.91 183.444C507.03 180.667 517.833 185.291 522.731 193.489Z" fill="#00B4BD"/>
<path d="M481.976 217.654C484.663 217.654 486.84 215.657 486.84 213.195C486.84 210.732 484.663 208.736 481.976 208.736C479.29 208.736 477.112 210.732 477.112 213.195C477.112 215.657 479.29 217.654 481.976 217.654Z" fill="white"/>
<path d="M495.075 211.23C497.761 211.23 499.939 209.234 499.939 206.771C499.939 204.309 497.761 202.312 495.075 202.312C492.389 202.312 490.211 204.309 490.211 206.771C490.211 209.234 492.389 211.23 495.075 211.23Z" fill="white"/>
<path d="M507.363 205.208C510.049 205.208 512.227 203.211 512.227 200.749C512.227 198.286 510.049 196.29 507.363 196.29C504.677 196.29 502.499 198.286 502.499 200.749C502.499 203.211 504.677 205.208 507.363 205.208Z" fill="white"/>
<path d="M359.062 56.6516C359.062 56.6516 391.088 147.459 514.369 142.554C555.329 137.861 604.08 142.554 647.489 194.967C713.477 274.698 686.981 363.518 656.995 419.897" stroke="#CCDDE2" stroke-width="4.11" stroke-miterlimit="10"/>
<g opacity="0.54">
<path opacity="0.54" d="M537.264 92.3152C537.143 93.685 536.912 95.0446 536.573 96.3831L532.733 111.653C531.555 116.347 530.232 121.26 526.58 124.686C519.754 131.07 508.404 129.607 498.915 127.675L475.619 122.934C470.269 121.847 464.833 120.728 460.037 118.295C455.242 115.862 451.077 111.88 449.968 106.96C449.115 103.33 450.028 99.5749 450.898 95.9607L454.414 81.3007C455.583 76.4974 456.897 71.4282 460.677 67.9314C467.41 61.7122 478.597 63.1282 487.899 64.9822L511.758 69.7385C526.145 72.586 538.407 78.7035 537.264 92.3152Z" fill="#00B4BD"/>
<path opacity="0.54" d="M505.136 92.7228C506.133 93.5732 506.87 94.6496 507.269 95.8433C507.669 97.0379 507.719 98.3075 507.414 99.5248C507.108 100.742 506.458 101.864 505.53 102.778C504.601 103.692 503.426 104.366 502.123 104.731L495.024 106.726L487.924 108.721C486.621 109.086 485.236 109.13 483.908 108.85C482.581 108.569 481.357 107.973 480.36 107.122C479.363 106.27 478.629 105.194 478.229 103.999C477.83 102.806 477.779 101.536 478.085 100.319L479.792 93.685L481.456 87.0591C481.759 85.8411 482.408 84.7185 483.336 83.8032C484.265 82.8887 485.439 82.2136 486.742 81.8475C488.045 81.4806 489.43 81.436 490.758 81.7161C492.086 81.9969 493.31 82.593 494.307 83.4449L499.743 88.0839L505.136 92.7228Z" fill="white"/>
</g>
<path d="M34.1309 608.086H771" stroke="black" stroke-width="4.11" stroke-miterlimit="10"/>
</svg>
